<?xml version="1.0" encoding="utf-8"?>
<!-- Generator: Adobe Illustrator 18.0.0, SVG Export Plug-In . SVG Version: 6.00 Build 0)  -->
<!DOCTYPE svg PUBLIC "-//W3C//DTD SVG 1.1//EN" "http://www.w3.org/Graphics/SVG/1.1/DTD/svg11.dtd">
<svg version="1.1" id="Layer_1" xmlns="http://www.w3.org/2000/svg" xmlns:xlink="http://www.w3.org/1999/xlink" x="0px" y="0px"
	 viewBox="0 367.3 288 75.3" enable-background="new 0 367.3 288 75.3" xml:space="preserve">
<path fill="#009448" d="M266.2,438.4H86.8v-63.7h179.4c7.5,0,13.6,6.1,13.6,13.6v36.5C279.8,432.3,273.7,438.4,266.2,438.4z"/>
<path fill="#004F35" d="M86.9,438.1H15.6c-4.8,0-8.7-3.9-8.7-8.7v-46.2c0-4.8,3.9-8.7,8.7-8.7h71.3L86.9,438.1L86.9,438.1z"/>
<g>
	<g>
		<path fill="#009247" d="M31.6,411.3c0,0-6.2,3.2-5.5,2.1c1.5-2.8,5.3-7.3,1.7-14.7c-0.5-1.1,3.1,0.6,5.3,2.5c0,0,0.1-4-7.7-8.1
			c-1.1-0.6-3,0.7-1.6,2.7c1.5,2.1,3.4,7.2,2.6,10c-0.7,2.5-3,5.8-5.1,8.8c-0.8,1.1,0.5,2.8,2.4,2.2
			C23.7,416.9,29.1,415.6,31.6,411.3z"/>
		<path fill="#009247" d="M22.7,401.1c2.1,1.2,2.8,3.9,1.6,6s-3.9,2.8-6,1.6s-2.8-3.9-1.6-6C17.9,400.6,20.6,399.8,22.7,401.1z"/>
	</g>
</g>
<g>
	<path fill="#8AC440" d="M43.4,422.4c0,0-0.3,7-1,5.8c-1.6-2.7-3.6-8.3-11.9-8.9c-1.2-0.1,2.1-2.4,4.8-3.3c0,0-3.4-2.1-10.9,2.6
		c-1,0.6-0.9,2.9,1.5,2.8c2.6-0.2,7.9,0.6,10,2.8c1.8,1.8,3.5,5.5,5.1,8.8c0.6,1.2,2.7,0.9,3.2-1C44.3,432.1,46,426.8,43.4,422.4z"
		/>
	<path fill="#8AC440" d="M30,425.1c2.1-1.2,4.8-0.5,6,1.6s0.5,4.8-1.6,6s-4.8,0.5-6-1.6C27.2,428.9,27.9,426.3,30,425.1z"/>
</g>
<g>
	<g>
		<path fill="#009247" d="M59,417.8c0,0,5.9,3.7,4.5,3.7c-3.2,0-9-1-13.6,5.9c-0.7,1-1-3-0.4-5.8c0,0-3.5,1.9-3.2,10.7
			c0,1.2,2.1,2.3,3.1,0.1c1.1-2.3,4.5-6.5,7.4-7.3c2.5-0.6,6.5-0.3,10.2,0c1.4,0.1,2.1-1.9,0.7-3.2C67.7,421.8,64,417.6,59,417.8z"
			/>
		<path fill="#009247" d="M54.5,430.6c0-2.4,2-4.4,4.4-4.4s4.4,2,4.4,4.4s-2,4.4-4.4,4.4C56.5,435.1,54.5,433.1,54.5,430.6z"/>
	</g>
</g>
<g>
	<path fill="#8AC440" d="M62.6,401.9c0,0,6.2-3.2,5.5-2.1c-1.5,2.8-5.3,7.3-1.7,14.7c0.5,1.1-3.1-0.6-5.3-2.5c0,0-0.1,4,7.7,8.1
		c1.1,0.6,3-0.7,1.6-2.7c-1.5-2.1-3.4-7.2-2.6-10c0.7-2.5,3-5.8,5.1-8.8c0.8-1.1-0.5-2.8-2.4-2.2C70.6,396.4,65.1,397.6,62.6,401.9z
		"/>
	<path fill="#8AC440" d="M71.6,412.3c-2.1-1.2-2.8-3.9-1.6-6c1.2-2.1,3.9-2.8,6-1.6s2.8,3.9,1.6,6S73.7,413.4,71.6,412.3z"/>
</g>
<g>
	<g>
		<path fill="#009247" d="M50.8,390.9c0,0,0.3-7,1-5.8c1.6,2.7,3.6,8.3,11.9,8.9c1.2,0.1-2.1,2.4-4.8,3.3c0,0,3.4,2.1,10.9-2.6
			c1-0.6,0.9-2.9-1.5-2.8c-2.6,0.2-7.9-0.6-10-2.8c-1.8-1.8-3.5-5.5-5.1-8.8c-0.6-1.2-2.7-0.9-3.1,1C50,381.3,48.3,386.6,50.8,390.9
			z"/>
		<path fill="#009247" d="M64.2,388.3c-2.1,1.2-4.8,0.5-6-1.6s-0.5-4.8,1.6-6s4.8-0.5,6,1.6S66.3,387.1,64.2,388.3z"/>
	</g>
</g>
<g>
	<path fill="#8AC440" d="M35.3,395.6c0,0-5.9-3.7-4.5-3.7c3.2,0,9,1,13.6-5.9c0.7-1,1,3,0.4,5.8c0,0,3.5-1.9,3.2-10.7
		c0-1.2-2.1-2.3-3.1-0.1c-1.1,2.3-4.5,6.5-7.4,7.3c-2.5,0.6-6.5,0.3-10.2,0c-1.4-0.1-2.1,1.9-0.7,3.2
		C26.6,391.5,30.3,395.6,35.3,395.6z"/>
	<path fill="#8AC440" d="M39.8,382.6c0,2.4-2,4.4-4.4,4.4s-4.4-2-4.4-4.4s2-4.4,4.4-4.4S39.8,380.1,39.8,382.6z"/>
</g>
<g>
	<g>
		<circle fill="#F5DAAA" cx="46.4" cy="398" r="2.4"/>
		<path fill="#F5DAAA" d="M49.3,407.8c0,0,2.9-6.5,11.5-4.4c0,0-2.8,8.8-11.2,5.5c0,0,2.5-3.1,7.6-4
			C57.1,404.9,53.6,404.6,49.3,407.8z"/>
		<path fill="#F5DAAA" d="M40.7,409.1c0,0-5,0.5-6.8-5.5c0,0,6.4-1.4,7.3,4.9c0,0-2.8-0.4-5.1-3.2C36.2,405.3,37.2,407.4,40.7,409.1
			z"/>
		<path fill="#F5DAAA" d="M39.1,397.3c0,0,4.8,5.5,7.5,5.7c0,0,4.5,0.1,9.2-3.1c0,0-3.9,4.5-8.2,5.8c0,0-1.7,4.4,0.4,7.1
			c2,2.7,9.6,3.8,9.6,3.8s-9.2,1.6-12.1-3.6c0,0-0.9,6.3-4,8.1c0,0,1.7-4.2,2-9.4C43.8,404.6,42.1,401.4,39.1,397.3z"/>
	</g>
</g>
<g>
	<g>
		<path fill="#FFFFFF" d="M155.5,390.1l-6.1,34.2c-2.2-0.2-4-1.1-5.4-2.6s-2-3.4-2-5.7c0-0.5,0.1-1.1,0.2-1.8l3.2-17.8
			c0.4-2.1,0-3.9-1.2-5.4s-2.9-2.2-5.1-2.2h-6.8l-6.3,35.5h-9l6.3-35.5H116c-1.9,0-3.7,0.7-5.4,2c-1.6,1.3-2.6,2.9-3,4.8l-3.2,18.1
			c-0.5,2.7-1.7,5-3.7,7s-4.3,3.2-7,3.6l6.2-33.7c0.5-3,2-5.5,4.4-7.6c2.4-2,5.1-3.1,8.2-3.1h34.8c2.5,0,4.5,0.8,6.1,2.3
			s2.4,3.5,2.4,6C155.7,388.8,155.6,389.4,155.5,390.1z"/>
		<path fill="#FFFFFF" d="M208.1,407.6l-1,6.3c-0.5,2.9-2,5.4-4.5,7.4c-2.5,2.1-5.3,3.1-8.2,3.1H171c-2.5,0-4.6-0.8-6.2-2.3
			c-1.7-1.5-2.5-3.5-2.5-6c0-0.4,0.1-1,0.2-1.7l4.1-23.8c0.5-3,2-5.5,4.5-7.5c2.4-2,5.2-3,8.3-3h27.2c-0.8,2.6-2.3,4.7-4.5,6.3
			c-2.2,1.7-4.6,2.5-7.3,2.5h-12c-2,0-3.9,0.7-5.5,2.2c-1.7,1.5-2.6,3.2-3,5.2l-2.1,11.2c-0.4,2.2,0,4.1,1.2,5.7
			c1.2,1.6,2.9,2.4,5.1,2.4h14.8c3,0,4.7-1.5,5.2-4.5c0.1-0.5,0.1-0.9,0.1-1.2c0-2.4-1.4-3.6-4.3-3.6h-2.6c-2.5,0-4.6-0.7-6.3-2.1
			c-1.7-1.4-2.5-3.3-2.5-5.7v-0.4h17.3c2.4,0,4.3,0.7,5.8,2.1c1.5,1.4,2.3,3.3,2.3,5.7C208.3,406.1,208.2,406.6,208.1,407.6z"/>
	</g>
	<g>
		<path fill="#FFFFFF" d="M246,398.3c0-0.6,0.2-1.2,0.4-1.7h-7.9c-2.1,0-3.7-0.8-5-2.4c-1.2-1.6-1.7-3.5-1.3-5.6
			c0.1-0.8,0.2-1.5,0.2-1.9c0-2.2-0.6-4-1.9-5.5c-1.3-1.5-3-2.3-5.1-2.5l-7.8,44.3c2.7-0.4,5-1.6,7-3.6s2.7-3.7,3.8-6.9
			c0.7-2,1.6-3.6,3-5.3c1.5-1.8,0.9-1.7,3.9-3.3c2.1-1.1,5.1-1.6,5.1-1.6C243.4,402.1,245.8,400.4,246,398.3z"/>
	</g>
	<path fill="#FFFFFF" d="M236.8,397.3c0.1-0.6,0.6-0.2,0.5-0.8l6.9-0.1c2.8-0.5,5.6-1.3,7.2-2.6c1.6-1.2,2.1-3.4,2.3-5.5
		c0.1-0.8,0.2-1.5,0.3-1.9c0.6-2.1,1.7-3.7,3.3-4.8s3.5-1.4,5.6-1.1l-4.6,44.8c-2.5-1.1-4.4-2.9-5.8-5.4c-1.4-2.4-2-5-1.8-7.7
		c0.2-2.1-0.3-4-1.5-5.9c-1.1-1.9-2.7-3.1-4.6-3.7l-15.4-2.4C230.1,398.3,236.3,399.4,236.8,397.3z"/>
</g>
<g>
	<path fill="#FFFFFF" d="M96.3,432.3l1.4-3.9h1.3v6H98v-4.4c0,0-0.8,2.4-1.6,4.4h-0.7l-1.5-4.4v4.4h-0.9v-6h1.3l1.4,3.9l0.2,0.5
		C96.1,432.6,96.2,432.4,96.3,432.3z"/>
	<path fill="#FFFFFF" d="M102.9,428.3c1.7,0,3.1,1.4,3.1,3.1c0,1.7-1.4,3.1-3.1,3.1c-1.7,0-3.1-1.4-3.1-3.1
		C99.8,429.6,101.2,428.3,102.9,428.3z M102.9,433.5c1.2,0,2.1-1,2.1-2.1c0-1.2-1-2.1-2.1-2.1c-1.2,0-2.1,1-2.1,2.1
		C100.8,432.5,101.7,433.5,102.9,433.5z"/>
	<path fill="#FFFFFF" d="M107.8,428.3c0.8,1.3,1.7,2.7,2.5,4c0.1,0.1,0.1,0.2,0.2,0.3v-4.3h0.9v6h-1l-2.5-4
		c-0.1-0.1-0.2-0.2-0.2-0.3c0,0.2,0,0.3,0,0.5v3.8h-0.9v-6H107.8z"/>
	<path fill="#FFFFFF" d="M113.4,433.4C113.4,433.4,113.4,433.4,113.4,433.4l2.2,0v0.9h-3.1v-6h3.1v0.9h-2.1c0,0,0,0,0,0v1.5
		c0,0,0,0,0,0h2.1v0.9h-2.1c0,0,0,0,0,0V433.4z"/>
	<path fill="#FFFFFF" d="M117.3,428.3l1.1,2.6c0,0,0,0,0,0c0,0,0,0,0,0l1.1-2.6h1l-1.7,3.8v2.2h-0.9v-2.2l-1.7-3.8H117.3z"/>
	<path fill="#FFFFFF" d="M129.2,433.2c-0.4,0.6-1.3,1.2-2.5,1.2c-1.7,0-3.1-1.4-3.1-3.1c0-1.7,1.4-3.1,3.1-3.1c1,0,1.7,0.5,2.1,0.7
		l-0.6,0.7c-0.4-0.3-0.9-0.5-1.5-0.5c-1.2,0-2.1,1-2.1,2.1c0,1.2,1,2.1,2.2,2.1c0.7,0,1.2-0.3,1.5-0.6v-0.8c-0.1,0-0.2,0-0.4,0h-1.4
		v-0.9h2.7V433.2z"/>
	<path fill="#FFFFFF" d="M131.6,432.1C131.6,432,131.6,432,131.6,432.1l-0.6,0c0,0,0,0,0,0v2.3H130v-6h1.7c1.1,0,1.8,0.8,1.8,1.9
		c0,0.5-0.1,0.9-0.5,1.2c-0.1,0.1-0.6,0.4-0.6,0.4c0,0,0,0,0,0l1.4,2.5h-1.1C132.5,433.6,132.1,432.8,131.6,432.1z M131,431.1
		C131,431.1,131,431.1,131,431.1l0.7,0.1c0.7,0,1-0.4,1-0.9c0-0.4-0.3-0.9-0.9-0.9H131c0,0-0.1,0-0.1,0.1V431.1z"/>
	<path fill="#FFFFFF" d="M137.1,428.3c1.7,0,3.1,1.4,3.1,3.1c0,1.7-1.4,3.1-3.1,3.1s-3.1-1.4-3.1-3.1
		C134,429.6,135.4,428.3,137.1,428.3z M137.1,433.5c1.2,0,2.1-1,2.1-2.1c0-1.2-1-2.1-2.1-2.1s-2.1,1-2.1,2.1
		C134.9,432.5,135.9,433.5,137.1,433.5z"/>
	<path fill="#FFFFFF" d="M144.8,434.3c-0.6-2.2-0.8-3.2-1-3.9c-0.2,0.6-0.3,1.3-1,3.9H142c-0.5-2-1.1-4-1.6-6h1l1,4c0,0,0,0.1,0,0.1
		c0.1-0.5,0.8-3.3,1-4h0.8l1,4l0,0.1c0,0,0,0,0,0l1-4h1l-1.6,6H144.8z"/>
	<path fill="#FFFFFF" d="M149.3,429.3C149.3,429.3,149.3,429.3,149.3,429.3l-1.4,0v-0.9h3.8v0.9h-1.4c0,0,0,0,0,0l0,0c0,0,0,0,0,0v5
		h-0.9V429.3z"/>
	<path fill="#FFFFFF" d="M155.8,428.3h0.9v6h-0.9v-2.5c0,0,0,0,0,0h-2.2c0,0,0,0,0,0v2.5h-0.9v-6h0.9v2.5c0,0,0,0,0,0h2.2
		c0,0,0,0,0,0V428.3z"/>
	<path fill="#FFFFFF" d="M164.1,434.3c-0.1-0.3-0.4-1.2-0.5-1.2h-2.2c0,0-0.1,0-0.1,0l-0.4,1.2h-1l2.2-6h0.7l2.3,6H164.1z
		 M162.5,430l-0.8,2.1c0,0,0,0,0,0c0,0,0,0,0,0h1.5c0,0,0,0,0,0c0,0,0,0,0,0L162.5,430C162.5,430,162.5,430,162.5,430
		C162.5,430,162.5,430,162.5,430z"/>
	<path fill="#FFFFFF" d="M166.8,428.3c0.8,1.3,1.7,2.7,2.5,4c0.1,0.1,0.1,0.2,0.2,0.3v-4.3h0.9v6h-1l-2.5-4
		c-0.1-0.1-0.2-0.2-0.2-0.3c0,0.2,0,0.3,0,0.5v3.8h-0.9v-6H166.8z"/>
	<path fill="#FFFFFF" d="M171.4,428.3h1.9c1.7,0,3,1.4,3,3c0,1.6-1.3,3-3,3h-1.9V428.3z M173.3,433.4c1.2,0,2.1-0.9,2.1-2.1
		c0-1.2-0.9-2.1-2.1-2.1h-0.9c0,0,0,0,0,0v4c0,0,0,0,0,0H173.3z"/>
	<path fill="#FFFFFF" d="M182.9,428.3h0.9v6h-0.9v-2.5c0,0,0,0,0,0h-2.2c0,0,0,0,0,0v2.5h-0.9v-6h0.9v2.5c0,0,0,0,0,0h2.2
		c0,0,0,0,0,0V428.3z"/>
	<path fill="#FFFFFF" d="M188.8,434.3c-0.1-0.3-0.4-1.2-0.5-1.2h-2.2c0,0-0.1,0-0.1,0l-0.4,1.2h-1l2.2-6h0.7l2.3,6H188.8z
		 M187.2,430l-0.8,2.1c0,0,0,0,0,0c0,0,0,0,0,0h1.5c0,0,0,0,0,0c0,0,0,0,0,0L187.2,430C187.2,430,187.2,430,187.2,430
		C187.2,430,187.2,430,187.2,430z"/>
	<path fill="#FFFFFF" d="M190.5,428.3h1.6c1,0,1.7,0.8,1.7,1.8c0,1-0.7,1.8-1.7,1.8h-0.6c0,0,0,0,0,0v2.3h-0.9V428.3z M191.4,431
		C191.4,431,191.4,431,191.4,431l0.6,0c0.7,0,0.9-0.6,0.9-0.9c0-0.4-0.2-0.9-0.9-0.9h-0.5c0,0-0.1,0-0.1,0.1V431z"/>
	<path fill="#FFFFFF" d="M194.7,428.3h1.6c1,0,1.7,0.8,1.7,1.8c0,1-0.7,1.8-1.7,1.8h-0.6c0,0,0,0,0,0v2.3h-0.9V428.3z M195.6,431
		C195.6,431,195.7,431,195.6,431l0.6,0c0.7,0,0.9-0.6,0.9-0.9c0-0.4-0.2-0.9-0.9-0.9h-0.5c0,0-0.1,0-0.1,0.1V431z"/>
	<path fill="#FFFFFF" d="M199.9,428.3v6H199v-6H199.9z"/>
	<path fill="#FFFFFF" d="M201.8,428.3c0.8,1.3,1.7,2.7,2.5,4c0.1,0.1,0.1,0.2,0.2,0.3v-4.3h0.9v6h-1l-2.5-4
		c-0.1-0.1-0.2-0.2-0.2-0.3c0,0.2,0,0.3,0,0.5v3.8h-0.9v-6H201.8z"/>
	<path fill="#FFFFFF" d="M207.4,433.4C207.4,433.4,207.4,433.4,207.4,433.4l2.2,0v0.9h-3.1v-6h3.1v0.9h-2.1c0,0,0,0,0,0v1.5
		c0,0,0,0,0,0h2.1v0.9h-2.1c0,0,0,0,0,0V433.4z"/>
	<path fill="#FFFFFF" d="M211.3,433c0.2,0.3,0.4,0.5,0.8,0.5c0.4,0,0.8-0.4,0.8-0.8c0-0.6-0.5-0.8-0.9-1c-0.8-0.4-1.5-0.7-1.5-1.7
		c0-1,0.7-1.7,1.7-1.7c0.6,0,1.2,0.3,1.4,0.9l-0.8,0.4c-0.1-0.3-0.4-0.4-0.6-0.4c-0.4,0-0.7,0.4-0.7,0.7c0,0.5,0.3,0.6,0.7,0.8
		c1.2,0.5,1.7,0.9,1.7,1.9c0,1-0.8,1.7-1.7,1.7h0c-0.8,0-1.4-0.5-1.6-1.2C210.8,433.1,211,433.1,211.3,433z"/>
	<path fill="#FFFFFF" d="M215.5,433c0.2,0.3,0.4,0.5,0.8,0.5c0.4,0,0.8-0.4,0.8-0.8c0-0.6-0.5-0.8-0.9-1c-0.8-0.4-1.5-0.7-1.5-1.7
		c0-1,0.7-1.7,1.7-1.7c0.6,0,1.2,0.3,1.4,0.9l-0.8,0.4c-0.1-0.3-0.4-0.4-0.6-0.4c-0.4,0-0.7,0.4-0.7,0.7c0,0.5,0.3,0.6,0.7,0.8
		c1.2,0.5,1.7,0.9,1.7,1.9c0,1-0.8,1.7-1.7,1.7h0c-0.8,0-1.4-0.5-1.6-1.2C215,433.1,215.3,433.1,215.5,433z"/>
	<path fill="#FFFFFF" d="M222.4,428.3v6h-0.9v-6H222.4z"/>
	<path fill="#FFFFFF" d="M224.3,428.3c0.8,1.3,1.7,2.7,2.5,4c0.1,0.1,0.1,0.2,0.2,0.3v-4.3h0.9v6h-1l-2.5-4
		c-0.1-0.1-0.2-0.2-0.2-0.3c0,0.2,0,0.3,0,0.5v3.8h-0.9v-6H224.3z"/>
	<path fill="#FFFFFF" d="M228.9,428.3h3.1v0.9h-2.2c0,0,0,0,0,0v1.5c0,0,0,0,0,0h2.2v0.9h-2.2c0,0,0,0,0,0v2.5h-0.9V428.3z"/>
	<path fill="#FFFFFF" d="M236,428.3c1.7,0,3.1,1.4,3.1,3.1c0,1.7-1.4,3.1-3.1,3.1s-3.1-1.4-3.1-3.1C233,429.6,234.3,428.3,236,428.3
		z M236,433.5c1.2,0,2.1-1,2.1-2.1c0-1.2-1-2.1-2.1-2.1s-2.1,1-2.1,2.1C233.9,432.5,234.9,433.5,236,433.5z"/>
	<path fill="#FFFFFF" d="M240.6,429.3C240.6,429.3,240.6,429.3,240.6,429.3l-1.4,0v-0.9h3.8v0.9h-1.4c0,0,0,0,0,0l0,0c0,0,0,0,0,0v5
		h-0.9V429.3z"/>
	<path fill="#FFFFFF" d="M244.8,433.4C244.8,433.4,244.8,433.4,244.8,433.4l2.2,0v0.9h-3.1v-6h3.1v0.9h-2.1c0,0,0,0,0,0v1.5
		c0,0,0,0,0,0h2.1v0.9h-2.1c0,0,0,0,0,0V433.4z"/>
	<path fill="#FFFFFF" d="M247.9,431.3c0-1.7,1.4-3.1,3.1-3.1c1.2,0,1.8,0.6,1.9,0.7l-0.6,0.8c-0.4-0.3-0.8-0.5-1.4-0.5
		c-1.2,0-2.1,1-2.1,2.1c0,1.2,1,2.1,2.1,2.1c0.5,0,1-0.2,1.3-0.5l0.5,0.7c-0.1,0.1-0.7,0.7-1.9,0.7
		C249.3,434.4,247.9,433.2,247.9,431.3z"/>
	<path fill="#FFFFFF" d="M257,428.3h0.9v6H257v-2.5c0,0,0,0,0,0h-2.2c0,0,0,0,0,0v2.5h-0.9v-6h0.9v2.5c0,0,0,0,0,0h2.2c0,0,0,0,0,0
		V428.3z"/>
</g>
</svg>
